<svg width="14" height="23" viewBox="0 0 14 23" fill="none" xmlns="http://www.w3.org/2000/svg">
<path d="M7 0.274414C3.13 0.274414 0 3.67824 0 7.8868C0 13.5961 7 22.0241 7 22.0241C7 22.0241 14 13.5961 14 7.8868C14 3.67824 10.87 0.274414 7 0.274414ZM7 10.6055C6.33696 10.6055 5.70107 10.3191 5.23223 9.80922C4.76339 9.29936 4.5 8.60784 4.5 7.8868C4.5 7.16575 4.76339 6.47424 5.23223 5.96438C5.70107 5.45452 6.33696 5.16809 7 5.16809C7.66304 5.16809 8.29893 5.45452 8.76777 5.96438C9.23661 6.47424 9.5 7.16575 9.5 7.8868C9.5 8.60784 9.23661 9.29936 8.76777 9.80922C8.29893 10.3191 7.66304 10.6055 7 10.6055Z" fill="#2B0808"/>
</svg>
